HIERARCHY
ROOT pelvis
{
  OFFSET 0 100 0
  CHANNELS 6 Xposition Yposition Zposition Zrotation Xrotation Yrotation
  JOINT pelvis_right_femur
  {
    OFFSET -10.78128 -3.44521 -0.5502486
    CHANNELS 3 Zrotation Xrotation Yrotation
    JOINT right_femur_tibia
    {
      OFFSET -0.8047443 -44.0398 -0.1307829
      CHANNELS 3 Zrotation Xrotation Yrotation
      JOINT right_tibia_foot
      {
        OFFSET 3.006224 -47.83518 -5
        CHANNELS 3 Zrotation Xrotation Yrotation
        End Site
        {
          OFFSET 0 -5 15
        }
      }
    }
  }
  JOINT pelvis_left_femur
  {
    OFFSET 10.78128 -3.44521 -0.5502486
    CHANNELS 3 Zrotation Xrotation Yrotation
    JOINT left_femur_tibia
    {
      OFFSET 0.8047443 -44.0398 -0.1307829
      CHANNELS 3 Zrotation Xrotation Yrotation
      JOINT left_tibia_foot
      {
        OFFSET -4.370144 -48.10324 -4.275266
        CHANNELS 3 Zrotation Xrotation Yrotation
        End Site
        {
          OFFSET 0 -5 15
        }
      }
    }
  }
  JOINT pelvis_spine1
  {
    OFFSET 0 6.468898 -3.129235
    CHANNELS 3 Zrotation Xrotation Yrotation
    JOINT spine1
    {
      OFFSET 0 23.15396 4.99043
      CHANNELS 3 Zrotation Xrotation Yrotation
      JOINT spine2
      {
        OFFSET 0 20.79997 -5.064912
        CHANNELS 3 Zrotation Xrotation Yrotation
        JOINT neck
        {
          OFFSET 0 14.38658 9.616178
          CHANNELS 3 Zrotation Xrotation Yrotation
          End Site
          {
            OFFSET 0 20 0
          }
        }
      }
      JOINT right_manubrium
      {
        OFFSET -5.722621 16.35077 3.967754
        CHANNELS 3 Zrotation Xrotation Yrotation
        JOINT right_clavicle
        {
          OFFSET -13.16364 1.694482 -4.693211
          CHANNELS 3 Zrotation Xrotation Yrotation
          JOINT right_humerus
          {
            OFFSET -28.5034 -0.3100689 -2.792744
            CHANNELS 3 Zrotation Xrotation Yrotation
            JOINT right_radius
            {
              OFFSET -25.15693 0.02248979 -1.271978
              CHANNELS 3 Zrotation Xrotation Yrotation
              End Site
              {
                OFFSET -15 0 0
              }
            }
          }
        }
      }
      JOINT left_manubrium
      {
        OFFSET 5.722621 16.35077 3.967754
        CHANNELS 3 Zrotation Xrotation Yrotation
        JOINT left_clavicle
        {
          OFFSET 13.16364 1.694482 -4.693211
          CHANNELS 3 Zrotation Xrotation Yrotation
          JOINT left_humerus
          {
            OFFSET 29.39168 -1.063119 -2.237045
            CHANNELS 3 Zrotation Xrotation Yrotation
            JOINT left_radius
            {
              OFFSET 24.59957 -0.9528479 0.9047498
              CHANNELS 3 Zrotation Xrotation Yrotation
              End Site
              {
                OFFSET 15 -0 -0
              }
            }
          }
        }
      }
    }
  }
}
MOTION
Frames: 19
Frame Time: 0.0416666666667
-143.0659 83.77831 -114.3848 8.864485 -2.682681 46.71238 -0.02430761 -3.960906 -5.725883 -0 19.61265 -0 -16.97296 -1.354805 4.275282 -3.913454 -8.027675 -7.288736 -0 51.44621 -0 2.230512 -4.945254 14.31804 -4.290675 0.01109698 7.009112 -0.5561732 12.96687 -5.817143 -1.870693 21.64715 9.227062 12.59396 -11.57267 0.120236 9.059064 -15.58923 12.68174 78.96617 39.59591 -13.02543 -0 0 20.42742 -22.21999 9.662884 -0.6320441 10.34072 -27.84229 -9.231957 -91.75043 -4.763649 15.71309 -0 0 1.753854 28.10325 7.533976 -31.7349
-139.382 83.81786 -111.6656 8.833344 -2.784227 46.05938 -0.02430761 -3.960906 -5.725883 -0 19.61265 -0 -16.97296 -1.354805 4.275282 -3.913454 -8.027675 -7.288736 -0 51.44621 -0 2.230512 -4.945254 14.31804 -4.290675 0.01109698 7.009112 -0.5561732 12.96687 -5.817143 -1.870693 21.64715 9.227062 12.59396 -11.57267 0.120236 9.059064 -15.58923 12.68174 78.96617 39.59591 -13.02543 -0 0 20.42742 -22.21999 9.662884 -0.6320441 10.34072 -27.84229 -9.231957 -91.75043 -4.763649 15.71309 -0 0 1.753854 28.10325 7.533976 -31.7349
-135.7297 83.8574 -108.9042 8.801042 -2.885412 45.40627 -0.02430761 -3.960906 -5.725883 -0 19.61265 -0 -16.97296 -1.354805 4.275282 -3.913454 -8.027675 -7.288736 -0 51.44621 -0 2.230512 -4.945254 14.31804 -4.290675 0.01109698 7.009112 -0.5561732 12.96687 -5.817143 -1.870693 21.64715 9.227062 12.59396 -11.57267 0.120236 9.059064 -15.58923 12.68174 78.96617 39.59591 -13.02543 -0 0 20.42742 -22.21999 9.662884 -0.6320441 10.34072 -27.84229 -9.231957 -91.75043 -4.763649 15.71309 -0 0 1.753854 28.10325 7.533976 -31.7349
-132.1095 83.89695 -106.1009 8.767585 -2.986223 44.75304 -0.02430761 -3.960906 -5.725883 -0 19.61265 -0 -16.97296 -1.354805 4.275282 -3.913454 -8.027675 -7.288736 -0 51.44621 -0 2.230512 -4.945254 14.31804 -4.290675 0.01109698 7.009112 -0.5561732 12.96687 -5.817143 -1.870693 21.64715 9.227062 12.59396 -11.57267 0.120236 9.059064 -15.58923 12.68174 78.96617 39.59591 -13.02543 -0 0 20.42742 -22.21999 9.662884 -0.6320441 10.34072 -27.84229 -9.231957 -91.75043 -4.763649 15.71309 -0 0 1.753854 28.10325 7.533976 -31.7349
-128.5218 83.93649 -103.256 8.732977 -3.086646 44.09969 -0.02430761 -3.960906 -5.725883 -0 19.61265 -0 -16.97296 -1.354805 4.275282 -3.913454 -8.027675 -7.288736 -0 51.44621 -0 2.230512 -4.945254 14.31804 -4.290675 0.01109698 7.009112 -0.5561732 12.96687 -5.817143 -1.870693 21.64715 9.227062 12.59396 -11.57267 0.120236 9.059064 -15.58923 12.68174 78.96617 39.59591 -13.02543 -0 0 20.42742 -22.21999 9.662884 -0.6320441 10.34072 -27.84229 -9.231957 -91.75043 -4.763649 15.71309 -0 0 1.753854 28.10325 7.533976 -31.7349
-124.9671 83.97604 -100.37 8.69722 -3.186668 43.44622 -0.02430761 -3.960906 -5.725883 -0 19.61265 -0 -16.97296 -1.354805 4.275282 -3.913454 -8.027675 -7.288736 -0 51.44621 -0 2.230512 -4.945254 14.31804 -4.290675 0.01109698 7.009112 -0.5561732 12.96687 -5.817143 -1.870693 21.64715 9.227062 12.59396 -11.57267 0.120236 9.059064 -15.58923 12.68174 78.96617 39.59591 -13.02543 -0 0 20.42742 -22.21999 9.662884 -0.6320441 10.34072 -27.84229 -9.231957 -91.75043 -4.763649 15.71309 -0 0 1.753854 28.10325 7.533976 -31.7349
-121.4459 84.01558 -97.44325 8.660319 -3.286277 42.79263 -0.02430761 -3.960906 -5.725883 -0 19.61265 -0 -16.97296 -1.354805 4.275282 -3.913454 -8.027675 -7.288736 -0 51.44621 -0 2.230512 -4.945254 14.31804 -4.290675 0.01109698 7.009112 -0.5561732 12.96687 -5.817143 -1.870693 21.64715 9.227062 12.59396 -11.57267 0.120236 9.059064 -15.58923 12.68174 78.96617 39.59591 -13.02543 -0 0 20.42742 -22.21999 9.662884 -0.6320441 10.34072 -27.84229 -9.231957 -91.75043 -4.763649 15.71309 -0 0 1.753854 28.10325 7.533976 -31.7349
-117.9586 84.05513 -94.47612 8.622279 -3.385459 42.1389 -0.02430761 -3.960906 -5.725883 -0 19.61265 -0 -16.97296 -1.354805 4.275282 -3.913454 -8.027675 -7.288736 -0 51.44621 -0 2.230512 -4.945254 14.31804 -4.290675 0.01109698 7.009112 -0.5561732 12.96687 -5.817143 -1.870693 21.64715 9.227062 12.59396 -11.57267 0.120236 9.059064 -15.58923 12.68174 78.96617 39.59591 -13.02543 -0 0 20.42742 -22.21999 9.662884 -0.6320441 10.34072 -27.84229 -9.231957 -91.75043 -4.763649 15.71309 -0 0 1.753854 28.10325 7.533976 -31.7349
-114.5058 84.09467 -91.469 8.583104 -3.484201 41.48504 -0.02430761 -3.960906 -5.725883 -0 19.61265 -0 -16.97296 -1.354805 4.275282 -3.913454 -8.027675 -7.288736 -0 51.44621 -0 2.230512 -4.945254 14.31804 -4.290675 0.01109698 7.009112 -0.5561732 12.96687 -5.817143 -1.870693 21.64715 9.227062 12.59396 -11.57267 0.120236 9.059064 -15.58923 12.68174 78.96617 39.59591 -13.02543 -0 0 20.42742 -22.21999 9.662884 -0.6320441 10.34072 -27.84229 -9.231957 -91.75043 -4.763649 15.71309 -0 0 1.753854 28.10325 7.533976 -31.7349
-111.0878 84.13422 -88.42231 8.542798 -3.58249 40.83104 -0.02430761 -3.960906 -5.725883 -0 19.61265 -0 -16.97296 -1.354805 4.275282 -3.913454 -8.027675 -7.288736 -0 51.44621 -0 2.230512 -4.945254 14.31804 -4.290675 0.01109698 7.009112 -0.5561732 12.96687 -5.817143 -1.870693 21.64715 9.227062 12.59396 -11.57267 0.120236 9.059064 -15.58923 12.68174 78.96617 39.59591 -13.02543 -0 0 20.42742 -22.21999 9.662884 -0.6320441 10.34072 -27.84229 -9.231957 -91.75043 -4.763649 15.71309 -0 0 1.753854 28.10325 7.533976 -31.7349
-107.7051 84.17376 -85.33644 8.501366 -3.680314 40.1769 -0.02430761 -3.960906 -5.725883 -0 19.61265 -0 -16.97296 -1.354805 4.275282 -3.913454 -8.027675 -7.288736 -0 51.44621 -0 2.230512 -4.945254 14.31804 -4.290675 0.01109698 7.009112 -0.5561732 12.96687 -5.817143 -1.870693 21.64715 9.227062 12.59396 -11.57267 0.120236 9.059064 -15.58923 12.68174 78.96617 39.59591 -13.02543 -0 0 20.42742 -22.21999 9.662884 -0.6320441 10.34072 -27.84229 -9.231957 -91.75043 -4.763649 15.71309 -0 0 1.753854 28.10325 7.533976 -31.7349
-104.3583 84.21331 -82.21181 8.458813 -3.777659 39.52262 -0.02430761 -3.960906 -5.725883 -0 19.61265 -0 -16.97296 -1.354805 4.275282 -3.913454 -8.027675 -7.288736 -0 51.44621 -0 2.230512 -4.945254 14.31804 -4.290675 0.01109698 7.009112 -0.5561732 12.96687 -5.817143 -1.870693 21.64715 9.227062 12.59396 -11.57267 0.120236 9.059064 -15.58923 12.68174 78.96617 39.59591 -13.02543 -0 0 20.42742 -22.21999 9.662884 -0.6320441 10.34072 -27.84229 -9.231957 -91.75043 -4.763649 15.71309 -0 0 1.753854 28.10325 7.533976 -31.7349
-101.0476 84.25285 -79.04882 8.415143 -3.874513 38.86819 -0.02430761 -3.960906 -5.725883 -0 19.61265 -0 -16.97296 -1.354805 4.275282 -3.913454 -8.027675 -7.288736 -0 51.44621 -0 2.230512 -4.945254 14.31804 -4.290675 0.01109698 7.009112 -0.5561732 12.96687 -5.817143 -1.870693 21.64715 9.227062 12.59396 -11.57267 0.120236 9.059064 -15.58923 12.68174 78.96617 39.59591 -13.02543 -0 0 20.42742 -22.21999 9.662884 -0.6320441 10.34072 -27.84229 -9.231957 -91.75043 -4.763649 15.71309 -0 0 1.753854 28.10325 7.533976 -31.7349
-97.77365 84.2924 -75.8479 8.370363 -3.970863 38.21361 -0.02430761 -3.960906 -5.725883 -0 19.61265 -0 -16.97296 -1.354805 4.275282 -3.913454 -8.027675 -7.288736 -0 51.44621 -0 2.230512 -4.945254 14.31804 -4.290675 0.01109698 7.009112 -0.5561732 12.96687 -5.817143 -1.870693 21.64715 9.227062 12.59396 -11.57267 0.120236 9.059064 -15.58923 12.68174 78.96617 39.59591 -13.02543 -0 0 20.42742 -22.21999 9.662884 -0.6320441 10.34072 -27.84229 -9.231957 -91.75043 -4.763649 15.71309 -0 0 1.753854 28.10325 7.533976 -31.7349
-94.53676 84.33194 -72.60947 8.324477 -4.066696 37.55888 -0.02430761 -3.960906 -5.725883 -0 19.61265 -0 -16.97296 -1.354805 4.275282 -3.913454 -8.027675 -7.288736 -0 51.44621 -0 2.230512 -4.945254 14.31804 -4.290675 0.01109698 7.009112 -0.5561732 12.96687 -5.817143 -1.870693 21.64715 9.227062 12.59396 -11.57267 0.120236 9.059064 -15.58923 12.68174 78.96617 39.59591 -13.02543 -0 0 20.42742 -22.21999 9.662884 -0.6320441 10.34072 -27.84229 -9.231957 -91.75043 -4.763649 15.71309 -0 0 1.753854 28.10325 7.533976 -31.7349
-91.33739 84.37149 -69.33397 8.27749 -4.161999 36.904 -0.02430761 -3.960906 -5.725883 -0 19.61265 -0 -16.97296 -1.354805 4.275282 -3.913454 -8.027675 -7.288736 -0 51.44621 -0 2.230512 -4.945254 14.31804 -4.290675 0.01109698 7.009112 -0.5561732 12.96687 -5.817143 -1.870693 21.64715 9.227062 12.59396 -11.57267 0.120236 9.059064 -15.58923 12.68174 78.96617 39.59591 -13.02543 -0 0 20.42742 -22.21999 9.662884 -0.6320441 10.34072 -27.84229 -9.231957 -91.75043 -4.763649 15.71309 -0 0 1.753854 28.10325 7.533976 -31.7349
-88.17598 84.41103 -66.02183 8.229408 -4.256761 36.24895 -0.02430761 -3.960906 -5.725883 -0 19.61265 -0 -16.97296 -1.354805 4.275282 -3.913454 -8.027675 -7.288736 -0 51.44621 -0 2.230512 -4.945254 14.31804 -4.290675 0.01109698 7.009112 -0.5561732 12.96687 -5.817143 -1.870693 21.64715 9.227062 12.59396 -11.57267 0.120236 9.059064 -15.58923 12.68174 78.96617 39.59591 -13.02543 -0 0 20.42742 -22.21999 9.662884 -0.6320441 10.34072 -27.84229 -9.231957 -91.75043 -4.763649 15.71309 -0 0 1.753854 28.10325 7.533976 -31.7349
-85.05293 84.45058 -62.67348 8.180237 -4.350969 35.59375 -0.02430761 -3.960906 -5.725883 -0 19.61265 -0 -16.97296 -1.354805 4.275282 -3.913454 -8.027675 -7.288736 -0 51.44621 -0 2.230512 -4.945254 14.31804 -4.290675 0.01109698 7.009112 -0.5561732 12.96687 -5.817143 -1.870693 21.64715 9.227062 12.59396 -11.57267 0.120236 9.059064 -15.58923 12.68174 78.96617 39.59591 -13.02543 -0 0 20.42742 -22.21999 9.662884 -0.6320441 10.34072 -27.84229 -9.231957 -91.75043 -4.763649 15.71309 -0 0 1.753854 28.10325 7.533976 -31.7349
-81.96866 84.49012 -59.28937 8.129983 -4.444609 34.93838 -0.02430761 -3.960906 -5.725883 -0 19.61265 -0 -16.97296 -1.354805 4.275282 -3.913454 -8.027675 -7.288736 -0 51.44621 -0 2.230512 -4.945254 14.31804 -4.290675 0.01109698 7.009112 -0.5561732 12.96687 -5.817143 -1.870693 21.64715 9.227062 12.59396 -11.57267 0.120236 9.059064 -15.58923 12.68174 78.96617 39.59591 -13.02543 -0 0 20.42742 -22.21999 9.662884 -0.6320441 10.34072 -27.84229 -9.231957 -91.75043 -4.763649 15.71309 -0 0 1.753854 28.10325 7.533976 -31.7349
